<svg width="200" height="200" viewBox="0 0 200 200" fill="none" xmlns="http://www.w3.org/2000/svg">
<path d="M0 0H200V200H0V0Z" fill="#2F323D"/>
<path d="M106.693 170C69.8325 170 45 136.2 45 100C45 63.8 70.9965 30 103.589 30C116.005 30 125.511 35.4 134.63 46L149.956 32H151.12L155 82.6L153.642 83L144.524 65.4C134.63 46.4 121.631 32 103.977 32C84.7707 32 75.6525 43.8 75.6525 100C75.6525 156.2 85.3527 167.6 108.439 167.6C128.227 167.6 144.912 154.2 151.314 128.8L153.06 129.4C146.658 155.6 129.586 170 106.693 170Z" fill="#FFFCF0"/>
</svg>
